<?xml version="1.0" standalone="no"?>
<!DOCTYPE svg PUBLIC "-//W3C//DTD SVG 20010904//EN"
 "http://www.w3.org/TR/2001/REC-SVG-20010904/DTD/svg10.dtd">
<svg version="1.0" xmlns="http://www.w3.org/2000/svg"
 width="300.000000pt" height="300.000000pt" viewBox="0 0 300.000000 300.000000"
 preserveAspectRatio="xMidYMid meet">
<metadata>
Created by potrace 1.14, written by Peter Selinger 2001-2017
</metadata>
<g transform="translate(0.000000,300.000000) scale(0.100000,-0.100000)"
fill="#000000" stroke="none">
<path d="M0 1500 l0 -1500 1500 0 1500 0 0 1500 0 1500 -1500 0 -1500 0 0
-1500z m1866 744 c18 -14 18 -14 -6 -3 -31 14 -36 19 -24 19 6 0 19 -7 30 -16z
m-447 -36 l8 -23 7 23 c9 28 22 28 30 0 10 -37 6 -55 -6 -28 -11 25 -11 25
-15 3 -3 -13 -8 -23 -12 -23 -4 0 -13 10 -19 23 l-11 22 0 -22 c-1 -13 -5 -23
-9 -23 -4 0 -6 16 -4 35 5 40 19 46 31 13z m171 -38 c4 0 13 12 18 28 l10 27
1 -26 c1 -36 -20 -53 -44 -35 -14 10 -16 19 -9 42 l8 29 4 -32 c2 -18 7 -33
12 -33z m-294 -5 c5 -25 4 -28 -7 -17 -18 17 -27 15 -31 -5 -3 -13 -7 -8 -15
15 -7 18 -8 32 -2 32 5 0 9 -4 9 -10 0 -5 5 -10 10 -10 6 0 10 10 10 22 0 29
17 12 26 -27z m459 -10 c0 -21 -5 -31 -19 -33 -28 -6 -39 11 -25 42 17 36 44
30 44 -9z m-605 -40 c26 -28 11 -35 -16 -7 -15 14 -17 14 -12 1 3 -9 2 -22 -3
-30 -7 -11 -9 -9 -9 8 0 12 -3 28 -6 37 -10 25 19 19 46 -9z m711 -14 c-16
-30 6 -37 29 -9 11 13 19 18 20 12 0 -7 -9 -22 -19 -35 -19 -23 -21 -23 -37
-7 -15 15 -16 21 -5 44 6 15 14 24 17 21 3 -3 1 -14 -5 -26z m-981 -15 c0 -2
-8 -10 -17 -17 -16 -13 -17 -12 -4 4 13 16 21 21 21 13z m145 -46 c19 -22 7
-28 -14 -7 -10 10 -11 7 -6 -15 8 -30 -3 -36 -24 -15 -11 10 -12 8 -6 -10 9
-32 -2 -28 -20 6 -14 27 -5 55 10 31 11 -18 27 -11 20 10 -4 14 -2 20 8 20 8
0 22 -9 32 -20z m963 -27 c-9 -10 -13 -25 -10 -33 5 -13 3 -13 -12 -1 -16 13
-15 16 5 37 25 27 40 24 17 -3z m163 -182 c-9 -6 -10 -11 -2 -15 6 -4 16 -4
21 -1 6 3 10 2 10 -4 0 -6 -13 -17 -30 -26 -17 -9 -30 -11 -30 -5 0 5 5 10 11
10 6 0 9 6 6 13 -2 6 -11 11 -21 9 -24 -4 -19 6 12 22 27 14 48 12 23 -3z
m-1018 -36 c-5 -14 101 -339 116 -357 4 -4 20 31 36 78 l29 85 -28 82 c-16 45
-35 92 -43 105 -13 22 -13 22 31 22 36 0 44 -3 40 -15 -6 -14 101 -341 118
-359 11 -14 10 67 -2 98 -9 24 -8 26 21 26 21 0 32 6 38 22 8 21 8 21 13 -5 3
-15 1 -27 -4 -27 -5 0 -8 -81 -6 -190 l3 -190 -38 0 c-34 0 -37 2 -27 19 5 11
10 65 10 120 l0 101 -29 0 c-27 0 -31 5 -57 80 -16 44 -31 80 -35 80 -3 0 -18
-36 -33 -80 -26 -74 -30 -80 -56 -80 -17 0 -31 7 -35 18 -4 9 -33 94 -66 187
-33 94 -67 176 -76 183 -14 10 -9 12 35 12 42 0 50 -3 45 -15z m444 -7 c-8
-13 -25 -53 -37 -90 -13 -37 -25 -66 -28 -64 -2 3 6 32 18 65 21 57 22 62 6
86 l-16 25 35 0 c34 0 35 -1 22 -22z m663 -101 c0 -2 -14 -16 -31 -33 -28 -26
-31 -27 -25 -7 5 15 2 25 -11 32 -15 8 -10 10 25 11 23 0 42 -1 42 -3z m-1587
-94 c-7 -98 9 -204 46 -300 26 -65 28 -77 16 -99 -12 -24 -13 -22 -34 43 -38
119 -53 287 -35 396 11 61 14 42 7 -40z m1002 -53 c63 -31 80 -68 80 -177 0
-77 -3 -96 -21 -120 -31 -41 -83 -73 -118 -72 l-31 0 34 12 c47 17 70 52 83
128 8 48 8 78 -1 122 -16 75 -45 108 -102 117 l-44 7 39 2 c22 0 58 -8 81 -19z
m562 -5 c-4 -8 -2 -17 2 -20 5 -2 11 4 14 15 7 28 37 26 36 -2 0 -22 -1 -22
-9 -3 -9 19 -9 19 -16 -2 -7 -24 -28 -31 -39 -13 -7 12 0 40 11 40 3 0 4 -7 1
-15z m35 -141 c32 -17 29 -29 -12 -39 -22 -5 -25 -3 -26 25 -1 35 -2 35 38 14z
m-16 -144 c22 0 16 -20 -8 -30 -18 -7 -19 -9 -5 -9 9 -1 17 -5 17 -10 0 -10
-48 -2 -56 10 -3 5 5 13 18 18 17 7 19 10 6 10 -10 1 -18 6 -18 12 0 6 7 8 16
5 9 -3 22 -6 30 -6z m-683 -77 c-7 -2 -21 -2 -30 0 -10 3 -4 5 12 5 17 0 24
-2 18 -5z m-766 -84 c17 -24 32 -49 32 -55 1 -6 10 -19 21 -29 11 -10 19 -23
17 -29 -2 -6 20 -37 50 -70 30 -32 52 -61 48 -64 -3 -3 7 -19 22 -36 19 -20
11 -16 -25 14 -83 68 -189 207 -221 292 -16 43 18 29 56 -23z m1098 -404 c-87
-42 -188 -70 -212 -60 -16 7 -15 9 7 15 14 5 19 8 12 9 -7 1 -11 5 -7 10 3 6
-3 15 -12 21 -14 8 -12 9 12 3 53 -14 161 -6 207 16 24 10 48 19 53 19 6 0
-21 -15 -60 -33z"/>
<path d="M1726 2164 c-10 -25 -7 -34 9 -28 17 7 20 30 6 38 -5 3 -12 -1 -15
-10z"/>
<path d="M890 897 c0 -2 15 -16 33 -33 l32 -29 -29 33 c-28 30 -36 37 -36 29z"/>
</g>
</svg>
